<?xml version="1.0" standalone="no"?>
<!DOCTYPE svg PUBLIC "-//W3C//DTD SVG 20010904//EN"
 "http://www.w3.org/TR/2001/REC-SVG-20010904/DTD/svg10.dtd">
<svg version="1.0" xmlns="http://www.w3.org/2000/svg"
 width="612.000000pt" height="408.000000pt" viewBox="0 0 612.000000 408.000000"
 preserveAspectRatio="xMidYMid meet">

<g transform="translate(0.000000,408.000000) scale(0.100000,-0.100000)"
fill="#000000" stroke="none">
<path d="M5258 3281 c-81 -42 -148 -78 -148 -81 0 -3 30 -16 66 -30 l65 -25
30 -85 c16 -46 29 -101 29 -121 0 -32 4 -39 35 -54 20 -9 48 -17 63 -18 22 -2
28 3 30 25 2 15 11 29 20 32 9 3 23 15 30 26 14 23 32 133 32 202 0 51 -2 49
99 89 13 5 22 12 19 15 -3 2 -54 26 -114 52 l-109 48 -147 -75z"/>
<path d="M1675 3235 c-82 -42 -88 -117 -16 -228 28 -43 39 -44 16 -1 -8 16
-15 37 -15 47 0 19 15 23 26 6 4 -7 14 1 26 20 27 41 81 73 129 75 45 1 49 13
14 50 -44 47 -121 60 -180 31z"/>
<path d="M5182 3035 c0 -16 2 -22 5 -12 2 9 2 23 0 30 -3 6 -5 -1 -5 -18z"/>
<path d="M667 2929 c7 -7 15 -10 18 -7 3 3 -2 9 -12 12 -14 6 -15 5 -6 -5z"/>
<path d="M708 2913 c7 -3 16 -2 19 1 4 3 -2 6 -13 5 -11 0 -14 -3 -6 -6z"/>
<path d="M1975 2868 c-33 -15 -67 -28 -76 -28 -13 0 -12 -8 9 -50 20 -41 23
-56 16 -82 -11 -36 -53 -55 -99 -44 -35 9 -98 68 -130 122 -14 24 -32 44 -40
44 -8 0 -39 -9 -69 -20 -67 -26 -110 -72 -131 -142 -24 -82 -25 -80 68 -94 39
-5 47 -10 47 -28 0 -26 -83 -212 -106 -237 -13 -15 -14 -19 -3 -19 30 -1 124
-13 128 -16 3 -3 10 -91 15 -197 l11 -192 60 0 c76 0 178 34 270 90 112 68
110 63 90 250 -17 153 -17 158 1 189 16 26 19 51 19 168 0 124 2 140 22 166
21 29 21 29 2 71 -36 82 -36 82 -104 49z"/>
<path d="M4412 2799 c-71 -72 -103 -114 -119 -153 -26 -63 -26 -58 -17 -301 4
-131 3 -213 -6 -265 -20 -123 -20 -125 16 -128 30 -3 34 2 71 65 75 131 163
312 163 336 0 13 -14 71 -30 127 -17 56 -29 104 -26 107 2 2 30 11 62 19 66
18 69 16 79 -58 l7 -48 69 0 c49 0 69 4 69 13 0 54 -111 344 -138 361 -6 3
-31 10 -57 15 l-46 9 -97 -99z"/>
<path d="M492 2842 c-75 -23 -83 -27 -77 -46 9 -26 20 -322 18 -476 l-1 -115
46 -30 c51 -33 75 -70 26 -39 l-29 18 30 -33 c25 -27 27 -33 15 -41 -8 -6 -22
-7 -30 -4 -8 4 -26 7 -40 8 -25 1 -25 0 -42 -149 -41 -357 -48 -460 -58 -814
-8 -288 -7 -376 2 -382 13 -8 6 -20 -45 -75 -19 -21 -28 -40 -25 -55 3 -21 9
-24 55 -27 51 -3 52 -3 83 43 24 35 31 54 27 74 -3 16 -1 33 5 39 5 5 23 124
39 263 16 139 31 259 34 268 2 9 16 97 30 196 35 246 46 304 56 311 13 8 26
-31 69 -211 44 -178 53 -233 75 -450 25 -235 45 -358 62 -377 9 -10 13 -26 10
-40 -4 -15 4 -39 23 -71 29 -45 32 -47 78 -47 47 0 72 12 72 35 0 6 -18 30
-40 53 -37 38 -40 45 -34 79 3 21 -4 166 -15 323 -12 157 -28 384 -36 505 -9
121 -20 263 -26 315 -5 52 -11 118 -12 147 l-2 52 -47 -5 c-57 -5 -61 6 -20
50 l27 30 -28 -18 c-47 -29 -42 -10 8 27 25 20 50 37 55 39 5 2 13 71 19 153
6 83 15 166 20 185 5 19 14 73 20 119 6 46 18 95 27 109 16 24 16 26 -2 39
-21 15 -119 53 -137 53 -7 -1 -30 -37 -52 -82 -22 -45 -45 -83 -52 -85 -13 -5
-60 86 -69 135 -4 17 -12 32 -18 31 -6 0 -48 -12 -94 -27z"/>
<path d="M5180 2853 c-36 -8 -71 -20 -78 -25 -22 -19 -69 -130 -101 -239 -49
-170 -55 -235 -41 -466 12 -189 14 -203 32 -203 16 0 18 -4 12 -22 -5 -13 -8
-39 -9 -58 0 -32 3 -35 30 -38 17 -2 33 -7 37 -11 5 -4 1 -86 -7 -181 -21
-243 -20 -266 6 -273 14 -4 19 -11 16 -24 -10 -33 -19 -520 -12 -610 l7 -90
54 -26 c79 -39 184 -34 184 8 0 9 -29 29 -66 46 -36 17 -68 37 -71 45 -4 12
14 182 58 533 15 126 11 122 132 115 56 -4 105 -10 110 -14 4 -3 14 -53 21
-111 8 -57 21 -149 30 -204 33 -213 46 -323 41 -336 -8 -22 7 -36 59 -58 66
-29 114 -35 164 -22 49 14 54 34 12 50 -16 6 -42 16 -57 21 -16 6 -38 19 -50
29 -21 18 -22 27 -31 332 -8 258 -7 316 4 325 11 9 10 34 -6 145 -41 281 -52
402 -57 658 l-6 263 27 -17 c15 -10 29 -15 32 -12 3 3 12 47 19 98 10 75 10
100 -1 138 -7 25 -23 78 -34 118 -24 85 -52 111 -130 120 -50 6 -50 6 -52 -23
0 -16 -1 -35 -1 -41 1 -15 -13 -17 -22 -3 -3 6 -16 10 -27 10 -11 0 -43 16
-69 35 -54 39 -65 40 -159 18z"/>
<path d="M3313 2705 c-24 -10 -33 -22 -38 -48 -13 -68 -8 -72 78 -69 76 3 77
2 77 -23 0 -26 24 -35 34 -12 3 8 9 7 20 -7 22 -27 28 -6 24 78 l-3 68 -40 14
c-51 17 -111 17 -152 -1z"/>
<path d="M5907 2482 c-15 -17 -16 -69 -2 -92 10 -16 57 -11 71 8 14 18 19 78
7 85 -28 16 -62 15 -76 -1z"/>
<path d="M3390 2370 c-8 -5 -10 -10 -5 -10 6 0 17 5 25 10 8 5 11 10 5 10 -5
0 -17 -5 -25 -10z"/>
<path d="M4504 2057 c-51 -73 -91 -133 -90 -134 1 -1 43 -13 94 -27 l92 -25 0
160 c0 87 -1 159 -2 158 -2 0 -44 -60 -94 -132z"/>
<path d="M3551 2028 c1 -29 4 -64 9 -78 7 -24 7 -24 17 10 5 19 6 37 1 38 -4
2 -8 21 -8 43 0 21 -4 39 -10 39 -6 0 -10 -24 -9 -52z"/>
<path d="M3179 2009 c-4 -92 -3 -119 3 -119 8 0 18 76 14 107 -3 32 -16 41
-17 12z"/>
<path d="M2527 1903 l-137 -4 13 -27 c7 -15 40 -97 72 -183 l58 -157 121 -7
c66 -4 128 -9 137 -10 44 -9 234 -7 232 2 -1 5 18 15 43 22 37 11 42 16 33 28
-9 10 -9 17 -1 25 7 7 12 18 12 26 0 10 -15 13 -66 10 l-67 -3 -18 50 c-10 28
-33 91 -52 140 l-35 90 -103 0 c-57 1 -166 -1 -242 -2z"/>
<path d="M3555 1861 c-3 -5 -2 -12 3 -15 5 -3 9 1 9 9 0 17 -3 19 -12 6z"/>
<path d="M3566 1707 c3 -10 9 -15 12 -12 3 3 0 11 -7 18 -10 9 -11 8 -5 -6z"/>
<path d="M4450 1665 c-7 -20 -18 -49 -26 -63 -16 -30 -19 -72 -5 -72 5 0 18
37 29 82 22 86 23 116 2 53z"/>
<path d="M2590 1435 c0 -24 3 -25 55 -25 l55 0 0 -87 c1 -265 9 -616 14 -621
8 -7 7 607 -1 691 l-6 67 -58 0 c-56 0 -59 -1 -59 -25z"/>
<path d="M3670 1435 l0 -25 110 0 110 0 0 -355 c0 -230 4 -355 10 -355 6 0 10
125 10 355 l0 354 63 3 c54 3 62 5 62 23 0 19 -8 20 -182 23 l-183 2 0 -25z"/>
<path d="M3230 1420 c0 -5 18 -10 40 -10 22 0 40 5 40 10 0 6 -18 10 -40 10
-22 0 -40 -4 -40 -10z"/>
<path d="M4688 783 c-16 -2 -28 -9 -28 -15 0 -24 -64 -87 -115 -114 -51 -27
-64 -42 -49 -56 8 -8 108 19 167 46 29 13 67 27 84 31 45 9 48 19 23 70 -22
45 -25 47 -82 38z"/>
<path d="M4089 712 c-8 -19 -90 -62 -131 -68 -24 -4 -51 -11 -62 -16 -16 -9
-17 -12 -4 -24 12 -13 39 -14 156 -8 158 8 156 7 144 79 -7 39 -8 40 -54 43
-25 2 -48 -1 -49 -6z"/>
</g>
</svg>
